# xmcd CD database file
#
# Track frame offsets:
#	150
#	6295
#	22345
#	39185
#	56337
#	82437
#	99177
#	115635
#	133855
#	151022
#	170832
#
# Disc length: 2519 seconds
#
# Revision: 0
# Processed by: cddbd v1.5PL3 Copyright (c) Steve Scherf et al.
# Submitted via: CDex 1.51
#
DISCID=8709d50b
DTITLE=LUV'ra-Doll - PROGRESS
DYEAR=2000
DGENRE=Rock
TTITLE0=Code 12085
TTITLE1=Same
TTITLE2=Ray
TTITLE3=Loveless Butterfly
TTITLE4=陽炎
TTITLE5=Deep Coma
TTITLE6=Unpleasant
TTITLE7=IN PAIN
TTITLE8=Dear…Children
TTITLE9=Exist a Reason
TTITLE10=Good Bye
EXTD=YEAR: 2000
EXTT0=
EXTT1=
EXTT2=
EXTT3=
EXTT4=
EXTT5=
EXTT6=
EXTT7=
EXTT8=
EXTT9=
EXTT10=
PLAYORDER=
